{"accessors":[{"bufferView":1,"componentType":5126,"count":36,"max":[1,0.9848080277442932,0.5],"min":[-1,-0.9848080277442932,-0.5],"type":"VEC3"},{"bufferView":1,"byteOffset":432,"componentType":5126,"count":36,"max":[1,0.9848077893257141,0],"min":[-1,-0.9848077893257141,0],"type":"VEC3"},{"bufferView":0,"componentType":5125,"count":204,"type":"SCALAR"},{"bufferView":1,"byteOffset":864,"componentType":5126,"count":36,"max":[1,0.9848080277442932,0.5],"min":[-1,-0.9848080277442932,-0.5],"type":"VEC3"},{"bufferView":1,"byteOffset":1296,"componentType":5126,"count":36,"max":[1,0.9848077893257141,0],"min":[-1,-0.9848077893257141,0],"type":"VEC3"},{"bufferView":0,"byteOffset":816,"componentType":5125,"count":204,"type":"SCALAR"},{"bufferView":1,"byteOffset":1728,"componentType":5126,"count":36,"max":[1,0.9848080277442932,0.5],"min":[-1,-0.9848080277442932,-0.5],"type":"VEC3"},{"bufferView":1,"byteOffset":2160,"componentType":5126,"count":36,"max":[1,0.9848077893257141,0],"min":[-1,-0.9848077893257141,0],"type":"VEC3"},{"bufferView":0,"byteOffset":1632,"componentType":5125,"count":204,"type":"SCALAR"},{"bufferView":1,"byteOffset":2592,"componentType":5126,"count":36,"max":[1,0.9848080277442932,0.5],"min":[-1,-0.9848080277442932,-0.5],"type":"VEC3"},{"bufferView":1,"byteOffset":3024,"componentType":5126,"count":36,"max":[1,0.9848077893257141,0],"min":[-1,-0.9848077893257141,0],"type":"VEC3"},{"bufferView":0,"byteOffset":2448,"componentType":5125,"count":204,"type":"SCALAR"},{"bufferView":1,"byteOffset":3456,"componentType":5126,"count":36,"max":[1,0.9848080277442932,0.5],"min":[-1,-0.9848080277442932,-0.5],"type":"VEC3"},{"bufferView":1,"byteOffset":3888,"componentType":5126,"count":36,"max":[1,0.9848077893257141,0],"min":[-1,-0.9848077893257141,0],"type":"VEC3"},{"bufferView":0,"byteOffset":3264,"componentType":5125,"count":204,"type":"SCALAR"},{"bufferView":1,"byteOffset":4320,"componentType":5126,"count":36,"max":[1,0.9848080277442932,0.5],"min":[-1,-0.9848080277442932,-0.5],"type":"VEC3"},{"bufferView":1,"byteOffset":4752,"componentType":5126,"count":36,"max":[1,0.9848077893257141,0],"min":[-1,-0.9848077893257141,0],"type":"VEC3"},{"bufferView":0,"byteOffset":4080,"componentType":5125,"count":204,"type":"SCALAR"},{"bufferView":1,"byteOffset":5184,"componentType":5126,"count":36,"max":[1,0.9848080277442932,0.5],"min":[-1,-0.9848080277442932,-0.5],"type":"VEC3"},{"bufferView":1,"byteOffset":5616,"componentType":5126,"count":36,"max":[1,0.9848077893257141,0],"min":[-1,-0.9848077893257141,0],"type":"VEC3"},{"bufferView":0,"byteOffset":4896,"componentType":5125,"count":204,"type":"SCALAR"},{"bufferView":1,"byteOffset":6048,"componentType":5126,"count":36,"max":[1,0.9848080277442932,0.5],"min":[-1,-0.9848080277442932,-0.5],"type":"VEC3"},{"bufferView":1,"byteOffset":6480,"componentType":5126,"count":36,"max":[1,0.9848077893257141,0],"min":[-1,-0.9848077893257141,0],"type":"VEC3"},{"bufferView":0,"byteOffset":5712,"componentType":5125,"count":204,"type":"SCALAR"},{"bufferView":1,"byteOffset":6912,"componentType":5126,"count":36,"max":[1,0.9848080277442932,0.5],"min":[-1,-0.9848080277442932,-0.5],"type":"VEC3"},{"bufferView":1,"byteOffset":7344,"componentType":5126,"count":36,"max":[1,0.9848077893257141,0],"min":[-1,-0.9848077893257141,0],"type":"VEC3"},{"bufferView":0,"byteOffset":6528,"componentType":5125,"count":204,"type":"SCALAR"},{"bufferView":1,"byteOffset":7776,"componentType":5126,"count":36,"max":[1,0.9848080277442932,0.5],"min":[-1,-0.9848080277442932,-0.5],"type":"VEC3"},{"bufferView":1,"byteOffset":8208,"componentType":5126,"count":36,"max":[1,0.9848077893257141,0],"min":[-1,-0.9848077893257141,0],"type":"VEC3"},{"bufferView":0,"byteOffset":7344,"componentType":5125,"count":204,"type":"SCALAR"},{"bufferView":1,"byteOffset":8640,"componentType":5126,"count":36,"max":[1,0.9848080277442932,0.5],"min":[-1,-0.9848080277442932,-0.5],"type":"VEC3"},{"bufferView":1,"byteOffset":9072,"componentType":5126,"count":36,"max":[1,0.9848077893257141,0],"min":[-1,-0.9848077893257141,0],"type":"VEC3"},{"bufferView":0,"byteOffset":8160,"componentType":5125,"count":204,"type":"SCALAR"},{"bufferView":1,"byteOffset":9504,"componentType":5126,"count":36,"max":[1,0.9848080277442932,0.5],"min":[-1,-0.9848080277442932,-0.5],"type":"VEC3"},{"bufferView":1,"byteOffset":9936,"componentType":5126,"count":36,"max":[1,0.9848077893257141,0],"min":[-1,-0.9848077893257141,0],"type":"VEC3"},{"bufferView":0,"byteOffset":8976,"componentType":5125,"count":204,"type":"SCALAR"},{"bufferView":1,"byteOffset":10368,"componentType":5126,"count":36,"max":[1,0.9848080277442932,0.5],"min":[-1,-0.9848080277442932,-0.5],"type":"VEC3"},{"bufferView":1,"byteOffset":10800,"componentType":5126,"count":36,"max":[1,0.9848077893257141,0],"min":[-1,-0.9848077893257141,0],"type":"VEC3"},{"bufferView":0,"byteOffset":9792,"componentType":5125,"count":204,"type":"SCALAR"},{"bufferView":1,"byteOffset":11232,"componentType":5126,"count":36,"max":[1,0.9848080277442932,0.5],"min":[-1,-0.9848080277442932,-0.5],"type":"VEC3"},{"bufferView":1,"byteOffset":11664,"componentType":5126,"count":36,"max":[1,0.9848077893257141,0],"min":[-1,-0.9848077893257141,0],"type":"VEC3"},{"bufferView":0,"byteOffset":10608,"componentType":5125,"count":204,"type":"SCALAR"},{"bufferView":1,"byteOffset":12096,"componentType":5126,"count":36,"max":[1,0.9848080277442932,0.5],"min":[-1,-0.9848080277442932,-0.5],"type":"VEC3"},{"bufferView":1,"byteOffset":12528,"componentType":5126,"count":36,"max":[1,0.9848077893257141,0],"min":[-1,-0.9848077893257141,0],"type":"VEC3"},{"bufferView":0,"byteOffset":11424,"componentType":5125,"count":204,"type":"SCALAR"},{"bufferView":1,"byteOffset":12960,"componentType":5126,"count":36,"max":[1,0.9848080277442932,0.5],"min":[-1,-0.9848080277442932,-0.5],"type":"VEC3"},{"bufferView":1,"byteOffset":13392,"componentType":5126,"count":36,"max":[1,0.9848077893257141,0],"min":[-1,-0.9848077893257141,0],"type":"VEC3"},{"bufferView":0,"byteOffset":12240,"componentType":5125,"count":204,"type":"SCALAR"},{"bufferView":1,"byteOffset":13824,"componentType":5126,"count":36,"max":[1,0.9848080277442932,0.5],"min":[-1,-0.9848080277442932,-0.5],"type":"VEC3"},{"bufferView":1,"byteOffset":14256,"componentType":5126,"count":36,"max":[1,0.9848077893257141,0],"min":[-1,-0.9848077893257141,0],"type":"VEC3"},{"bufferView":0,"byteOffset":13056,"componentType":5125,"count":204,"type":"SCALAR"},{"bufferView":1,"byteOffset":14688,"componentType":5126,"count":36,"max":[1,0.9848080277442932,0.5],"min":[-1,-0.9848080277442932,-0.5],"type":"VEC3"},{"bufferView":1,"byteOffset":15120,"componentType":5126,"count":36,"max":[1,0.9848077893257141,0],"min":[-1,-0.9848077893257141,0],"type":"VEC3"},{"bufferView":0,"byteOffset":13872,"componentType":5125,"count":204,"type":"SCALAR"},{"bufferView":1,"byteOffset":15552,"componentType":5126,"count":24,"max":[1,0.8660253882408142,1],"min":[-1,-0.8660253882408142,-1],"type":"VEC3"},{"bufferView":1,"byteOffset":15840,"componentType":5126,"count":24,"max":[0.8660253882408142,1,0],"min":[-0.8660253882408142,-1,0],"type":"VEC3"},{"bufferView":0,"byteOffset":14688,"componentType":5125,"count":36,"type":"SCALAR"},{"bufferView":1,"byteOffset":16128,"componentType":5126,"count":12,"max":[1,0.8660253882408142,1],"min":[-1,-0.8660253882408142,-1],"type":"VEC3"},{"bufferView":1,"byteOffset":16272,"componentType":5126,"count":12,"max":[0,0,1],"min":[0,0,-1],"type":"VEC3"},{"bufferView":0,"byteOffset":14832,"componentType":5125,"count":24,"type":"SCALAR"}],"asset":{"extras":{"author":"Symmetry312UBC (https://sketchfab.com/symmetry312ubc)","license":"CC-BY-4.0 (http://creativecommons.org/licenses/by/4.0/)","source":"https://sketchfab.com/3d-models/hexagonal-prism-cdd6ac406f8740b1860380e9de3563eb","title":"Hexagonal Prism"},"generator":"Sketchfab-12.68.0","version":"2.0"},"bufferViews":[{"buffer":0,"byteLength":14928,"name":"floatBufferViews","target":34963},{"buffer":0,"byteLength":16416,"byteOffset":14928,"byteStride":12,"name":"floatBufferViews","target":34962}],"buffers":[{"byteLength":31344,"uri":"data:application/octet-stream;base64,"}],"extensionsUsed":["KHR_materials_unlit"],"materials":[{"doubleSided":true,"extensions":{"KHR_materials_unlit":{}},"name":"im_2e8b57ff","pbrMetallicRoughness":{"baseColorFactor":[0.1804,0.5451,0.3412,1],"metallicFactor":0}},{"doubleSided":true,"extensions":{"KHR_materials_unlit":{}},"name":"im_ffff00ff","pbrMetallicRoughness":{"baseColorFactor":[1,1,0,1],"metallicFactor":0}},{"doubleSided":true,"extensions":{"KHR_materials_unlit":{}},"name":"im_edge_cylinder","pbrMetallicRoughness":{"baseColorFactor":[0,0,0,1],"metallicFactor":0}}],"meshes":[{"name":"im_edge_cylinder","primitives":[{"attributes":{"NORMAL":1,"POSITION":0},"indices":2,"material":2,"mode":4}]},{"name":"im_edge_cylinder","primitives":[{"attributes":{"NORMAL":4,"POSITION":3},"indices":5,"material":2,"mode":4}]},{"name":"im_edge_cylinder","primitives":[{"attributes":{"NORMAL":7,"POSITION":6},"indices":8,"material":2,"mode":4}]},{"name":"im_edge_cylinder","primitives":[{"attributes":{"NORMAL":10,"POSITION":9},"indices":11,"material":2,"mode":4}]},{"name":"im_edge_cylinder","primitives":[{"attributes":{"NORMAL":13,"POSITION":12},"indices":14,"material":2,"mode":4}]},{"name":"im_edge_cylinder","primitives":[{"attributes":{"NORMAL":16,"POSITION":15},"indices":17,"material":2,"mode":4}]},{"name":"im_edge_cylinder","primitives":[{"attributes":{"NORMAL":19,"POSITION":18},"indices":20,"material":2,"mode":4}]},{"name":"im_edge_cylinder","primitives":[{"attributes":{"NORMAL":22,"POSITION":21},"indices":23,"material":2,"mode":4}]},{"name":"im_edge_cylinder","primitives":[{"attributes":{"NORMAL":25,"POSITION":24},"indices":26,"material":2,"mode":4}]},{"name":"im_edge_cylinder","primitives":[{"attributes":{"NORMAL":28,"POSITION":27},"indices":29,"material":2,"mode":4}]},{"name":"im_edge_cylinder","primitives":[{"attributes":{"NORMAL":31,"POSITION":30},"indices":32,"material":2,"mode":4}]},{"name":"im_edge_cylinder","primitives":[{"attributes":{"NORMAL":34,"POSITION":33},"indices":35,"material":2,"mode":4}]},{"name":"im_edge_cylinder","primitives":[{"attributes":{"NORMAL":37,"POSITION":36},"indices":38,"material":2,"mode":4}]},{"name":"im_edge_cylinder","primitives":[{"attributes":{"NORMAL":40,"POSITION":39},"indices":41,"material":2,"mode":4}]},{"name":"im_edge_cylinder","primitives":[{"attributes":{"NORMAL":43,"POSITION":42},"indices":44,"material":2,"mode":4}]},{"name":"im_edge_cylinder","primitives":[{"attributes":{"NORMAL":46,"POSITION":45},"indices":47,"material":2,"mode":4}]},{"name":"im_edge_cylinder","primitives":[{"attributes":{"NORMAL":49,"POSITION":48},"indices":50,"material":2,"mode":4}]},{"name":"im_edge_cylinder","primitives":[{"attributes":{"NORMAL":52,"POSITION":51},"indices":53,"material":2,"mode":4}]},{"name":"im_2e8b57ff","primitives":[{"attributes":{"NORMAL":55,"POSITION":54},"indices":56,"material":0,"mode":4}]},{"name":"im_ffff00ff","primitives":[{"attributes":{"NORMAL":58,"POSITION":57},"indices":59,"material":1,"mode":4}]}],"nodes":[{"children":[1],"matrix":[1,0,0,0,0,2.220446049250313e-16,-1,0,0,1,2.220446049250313e-16,0,0,0,0,1],"name":"Sketchfab_model"},{"children":[2],"name":"Collada visual scene group"},{"children":[40,41,3],"name":"visgeom_0"},{"children":[4,6,8,10,12,14,16,18,20,22,24,26,28,30,32,34,36,38],"name":"geometry_edges0_0_hexpriz.off"},{"children":[5],"matrix":[0.0037499998825280345,-0.0021650634804976855,0.0024999999777735793,0,-0.0021650634804976855,0.001250000005713257,0.004330126902706782,0,-0.5000000067305869,-0.8660253998985324,1.1102230246251565e-16,0,0.75,-0.4330126941204071,1,1],"name":"Object_4"},{"mesh":0,"name":"im_edge_cylinder"},{"children":[7],"matrix":[0.0037499998825280345,0.0021650634804976855,0.0024999999777735793,0,0.0021650634804976855,0.001250000005713257,-0.004330126902706782,0,-0.5000000067305869,0.8660253998985324,1.1102230246251565e-16,0,0.75,0.4330126941204071,1,1],"name":"Object_6"},{"mesh":1,"name":"im_edge_cylinder"},{"children":[9],"matrix":[-0.004999999888241291,-6.123233858871821e-19,0,0,6.123233858871821e-19,-0.004999999888241291,0,0,0,0,2,0,1,0,0,1],"name":"Object_8"},{"mesh":2,"name":"im_edge_cylinder"},{"children":[11],"matrix":[1.1102229998097382e-18,-5.55111499904869e-19,0.004999999888241291,0,-5.55111499904869e-19,0.004999999888241291,5.551114999048691e-19,0,-1,-1.1102230246251565e-16,2.220446049250313e-16,0,1.6653345369377348e-16,-0.8660253882408142,1,1],"name":"Object_10"},{"mesh":3,"name":"im_edge_cylinder"},{"children":[13],"matrix":[-0.004999999888241291,-6.123233858871821e-19,0,0,6.123233858871821e-19,-0.004999999888241291,0,0,0,0,2,0,0.5,-0.8660253882408142,0,1],"name":"Object_12"},{"mesh":4,"name":"im_edge_cylinder"},{"children":[15],"matrix":[0.0037499998825280345,0.0021650634804976855,0.0024999999777735793,0,0.0021650634804976855,0.001250000005713257,-0.004330126902706782,0,-0.5000000067305869,0.8660253998985324,1.1102230246251565e-16,0,-0.75,-0.4330126941204071,1,1],"name":"Object_14"},{"mesh":5,"name":"im_edge_cylinder"},{"children":[17],"matrix":[-0.004999999888241291,-6.123233858871821e-19,0,0,6.123233858871821e-19,-0.004999999888241291,0,0,0,0,2,0,-0.5,-0.8660253882408142,0,1],"name":"Object_16"},{"mesh":6,"name":"im_edge_cylinder"},{"children":[19],"matrix":[0.0037499998825280345,-0.0021650634804976855,-0.0024999999777735793,0,-0.0021650634804976855,0.001250000005713257,-0.004330126902706782,0,0.5000000067305869,0.8660253998985324,1.1102230246251565e-16,0,-0.75,0.4330126941204071,1,1],"name":"Object_18"},{"mesh":7,"name":"im_edge_cylinder"},{"children":[21],"matrix":[-0.004999999888241291,-6.123233858871821e-19,0,0,6.123233858871821e-19,-0.004999999888241291,0,0,0,0,2,0,-1,-1.2246063538223773e-16,0,1],"name":"Object_20"},{"mesh":8,"name":"im_edge_cylinder"},{"children":[23],"matrix":[1.1102229998097382e-18,-3.330668999429214e-18,-0.004999999888241291,0,-3.330668999429214e-18,0.004999999888241291,-3.3306689994292145e-18,0,1,6.661338147750939e-16,2.220446049250313e-16,0,-5.828670879282072e-16,0.8660253882408142,1,1],"name":"Object_22"},{"mesh":9,"name":"im_edge_cylinder"},{"children":[25],"matrix":[-0.004999999888241291,-6.123233858871821e-19,0,0,6.123233858871821e-19,-0.004999999888241291,0,0,0,0,2,0,-0.5,0.8660253882408142,0,1],"name":"Object_24"},{"mesh":10,"name":"im_edge_cylinder"},{"children":[27],"matrix":[-0.004999999888241291,-6.123233858871821e-19,0,0,6.123233858871821e-19,-0.004999999888241291,0,0,0,0,2,0,0.5,0.8660253882408142,0,1],"name":"Object_26"},{"mesh":11,"name":"im_edge_cylinder"},{"children":[29],"matrix":[0.0037499998825280345,-0.0021650634804976855,0.0024999999777735793,0,-0.0021650634804976855,0.001250000005713257,0.004330126902706782,0,-0.5000000067305869,-0.8660253998985324,1.1102230246251565e-16,0,0.75,-0.4330126941204071,-1,1],"name":"Object_28"},{"mesh":12,"name":"im_edge_cylinder"},{"children":[31],"matrix":[0.0037499998825280345,0.0021650634804976855,0.0024999999777735793,0,0.0021650634804976855,0.001250000005713257,-0.004330126902706782,0,-0.5000000067305869,0.8660253998985324,1.1102230246251565e-16,0,0.75,0.4330126941204071,-1,1],"name":"Object_30"},{"mesh":13,"name":"im_edge_cylinder"},{"children":[33],"matrix":[1.1102229998097382e-18,-5.55111499904869e-19,0.004999999888241291,0,-5.55111499904869e-19,0.004999999888241291,5.551114999048691e-19,0,-1,-1.1102230246251565e-16,2.220446049250313e-16,0,1.6653345369377348e-16,-0.8660253882408142,-1,1],"name":"Object_32"},{"mesh":14,"name":"im_edge_cylinder"},{"children":[35],"matrix":[0.0037499998825280345,0.0021650634804976855,0.0024999999777735793,0,0.0021650634804976855,0.001250000005713257,-0.004330126902706782,0,-0.5000000067305869,0.8660253998985324,1.1102230246251565e-16,0,-0.75,-0.4330126941204071,-1,1],"name":"Object_34"},{"mesh":15,"name":"im_edge_cylinder"},{"children":[37],"matrix":[0.0037499998825280345,-0.0021650634804976855,-0.0024999999777735793,0,-0.0021650634804976855,0.001250000005713257,-0.004330126902706782,0,0.5000000067305869,0.8660253998985324,1.1102230246251565e-16,0,-0.75,0.4330126941204071,-1,1],"name":"Object_36"},{"mesh":16,"name":"im_edge_cylinder"},{"children":[39],"matrix":[1.1102229998097382e-18,-3.330668999429214e-18,-0.004999999888241291,0,-3.330668999429214e-18,0.004999999888241291,-3.3306689994292145e-18,0,1,6.661338147750939e-16,2.220446049250313e-16,0,-5.828670879282072e-16,0.8660253882408142,-1,1],"name":"Object_38"},{"mesh":17,"name":"im_edge_cylinder"},{"mesh":18,"name":"im_2e8b57ff"},{"mesh":19,"name":"im_ffff00ff"}],"scene":0,"scenes":[{"name":"Sketchfab_Scene","nodes":[0]}]}