{"accessors":[{"bufferView":1,"componentType":5126,"count":36,"max":[1,0.9848080277442932,0.5],"min":[-1,-0.9848080277442932,-0.5],"type":"VEC3"},{"bufferView":1,"byteOffset":432,"componentType":5126,"count":36,"max":[1,0.9848077893257141,0],"min":[-1,-0.9848077893257141,0],"type":"VEC3"},{"bufferView":0,"componentType":5125,"count":204,"type":"SCALAR"},{"bufferView":1,"byteOffset":864,"componentType":5126,"count":36,"max":[1,0.9848080277442932,0.5],"min":[-1,-0.9848080277442932,-0.5],"type":"VEC3"},{"bufferView":1,"byteOffset":1296,"componentType":5126,"count":36,"max":[1,0.9848077893257141,0],"min":[-1,-0.9848077893257141,0],"type":"VEC3"},{"bufferView":0,"byteOffset":816,"componentType":5125,"count":204,"type":"SCALAR"},{"bufferView":1,"byteOffset":1728,"componentType":5126,"count":36,"max":[1,0.9848080277442932,0.5],"min":[-1,-0.9848080277442932,-0.5],"type":"VEC3"},{"bufferView":1,"byteOffset":2160,"componentType":5126,"count":36,"max":[1,0.9848077893257141,0],"min":[-1,-0.9848077893257141,0],"type":"VEC3"},{"bufferView":0,"byteOffset":1632,"componentType":5125,"count":204,"type":"SCALAR"},{"bufferView":1,"byteOffset":2592,"componentType":5126,"count":36,"max":[1,0.9848080277442932,0.5],"min":[-1,-0.9848080277442932,-0.5],"type":"VEC3"},{"bufferView":1,"byteOffset":3024,"componentType":5126,"count":36,"max":[1,0.9848077893257141,0],"min":[-1,-0.9848077893257141,0],"type":"VEC3"},{"bufferView":0,"byteOffset":2448,"componentType":5125,"count":204,"type":"SCALAR"},{"bufferView":1,"byteOffset":3456,"componentType":5126,"count":36,"max":[1,0.9848080277442932,0.5],"min":[-1,-0.9848080277442932,-0.5],"type":"VEC3"},{"bufferView":1,"byteOffset":3888,"componentType":5126,"count":36,"max":[1,0.9848077893257141,0],"min":[-1,-0.9848077893257141,0],"type":"VEC3"},{"bufferView":0,"byteOffset":3264,"componentType":5125,"count":204,"type":"SCALAR"},{"bufferView":1,"byteOffset":4320,"componentType":5126,"count":36,"max":[1,0.9848080277442932,0.5],"min":[-1,-0.9848080277442932,-0.5],"type":"VEC3"},{"bufferView":1,"byteOffset":4752,"componentType":5126,"count":36,"max":[1,0.9848077893257141,0],"min":[-1,-0.9848077893257141,0],"type":"VEC3"},{"bufferView":0,"byteOffset":4080,"componentType":5125,"count":204,"type":"SCALAR"},{"bufferView":1,"byteOffset":5184,"componentType":5126,"count":36,"max":[1,0.9848080277442932,0.5],"min":[-1,-0.9848080277442932,-0.5],"type":"VEC3"},{"bufferView":1,"byteOffset":5616,"componentType":5126,"count":36,"max":[1,0.9848077893257141,0],"min":[-1,-0.9848077893257141,0],"type":"VEC3"},{"bufferView":0,"byteOffset":4896,"componentType":5125,"count":204,"type":"SCALAR"},{"bufferView":1,"byteOffset":6048,"componentType":5126,"count":36,"max":[1,0.9848080277442932,0.5],"min":[-1,-0.9848080277442932,-0.5],"type":"VEC3"},{"bufferView":1,"byteOffset":6480,"componentType":5126,"count":36,"max":[1,0.9848077893257141,0],"min":[-1,-0.9848077893257141,0],"type":"VEC3"},{"bufferView":0,"byteOffset":5712,"componentType":5125,"count":204,"type":"SCALAR"},{"bufferView":1,"byteOffset":6912,"componentType":5126,"count":36,"max":[1,0.9848080277442932,0.5],"min":[-1,-0.9848080277442932,-0.5],"type":"VEC3"},{"bufferView":1,"byteOffset":7344,"componentType":5126,"count":36,"max":[1,0.9848077893257141,0],"min":[-1,-0.9848077893257141,0],"type":"VEC3"},{"bufferView":0,"byteOffset":6528,"componentType":5125,"count":204,"type":"SCALAR"},{"bufferView":1,"byteOffset":7776,"componentType":5126,"count":18,"max":[1.5,1.9548380374908447,2],"min":[-1.5,0,-2],"type":"VEC3"},{"bufferView":1,"byteOffset":7992,"componentType":5126,"count":18,"max":[0.7933533191680908,0.6087614297866821,0],"min":[-0.7933533191680908,-1,-1],"type":"VEC3"},{"bufferView":0,"byteOffset":7344,"componentType":5125,"count":24,"type":"SCALAR"}],"asset":{"extras":{"author":"Symmetry312UBC (https://sketchfab.com/symmetry312ubc)","license":"CC-BY-4.0 (http://creativecommons.org/licenses/by/4.0/)","source":"https://sketchfab.com/3d-models/triangular-prism-54fc26b1663946e093cb6194c1314d0d","title":"Triangular prism"},"generator":"Sketchfab-14.25.0","version":"2.0"},"bufferViews":[{"buffer":0,"byteLength":7440,"name":"floatBufferViews","target":34963},{"buffer":0,"byteLength":8208,"byteOffset":7440,"byteStride":12,"name":"floatBufferViews","target":34962}],"buffers":[{"byteLength":15648,"uri":"data:application/octet-stream;base64,"}],"extensionsUsed":["KHR_materials_unlit"],"materials":[{"doubleSided":true,"extensions":{"KHR_materials_unlit":{}},"name":"im_cce6e6ff","pbrMetallicRoughness":{"baseColorFactor":[0.8,0.902,0.902,1],"metallicFactor":0}},{"doubleSided":true,"extensions":{"KHR_materials_unlit":{}},"name":"im_edge_cylinder","pbrMetallicRoughness":{"baseColorFactor":[0,0,0,1],"metallicFactor":0}}],"meshes":[{"name":"im_edge_cylinder","primitives":[{"attributes":{"NORMAL":1,"POSITION":0},"indices":2,"material":1,"mode":4}]},{"name":"im_edge_cylinder","primitives":[{"attributes":{"NORMAL":4,"POSITION":3},"indices":5,"material":1,"mode":4}]},{"name":"im_edge_cylinder","primitives":[{"attributes":{"NORMAL":7,"POSITION":6},"indices":8,"material":1,"mode":4}]},{"name":"im_edge_cylinder","primitives":[{"attributes":{"NORMAL":10,"POSITION":9},"indices":11,"material":1,"mode":4}]},{"name":"im_edge_cylinder","primitives":[{"attributes":{"NORMAL":13,"POSITION":12},"indices":14,"material":1,"mode":4}]},{"name":"im_edge_cylinder","primitives":[{"attributes":{"NORMAL":16,"POSITION":15},"indices":17,"material":1,"mode":4}]},{"name":"im_edge_cylinder","primitives":[{"attributes":{"NORMAL":19,"POSITION":18},"indices":20,"material":1,"mode":4}]},{"name":"im_edge_cylinder","primitives":[{"attributes":{"NORMAL":22,"POSITION":21},"indices":23,"material":1,"mode":4}]},{"name":"im_edge_cylinder","primitives":[{"attributes":{"NORMAL":25,"POSITION":24},"indices":26,"material":1,"mode":4}]},{"name":"im_cce6e6ff","primitives":[{"attributes":{"NORMAL":28,"POSITION":27},"indices":29,"material":0,"mode":4}]}],"nodes":[{"children":[1],"matrix":[1,0,0,0,0,2.220446049250313e-16,-1,0,0,1,2.220446049250313e-16,0,0,0,0,1],"name":"Sketchfab_model"},{"children":[2],"name":"Collada visual scene group"},{"children":[22,3],"name":"visgeom_0"},{"children":[4,6,8,10,12,14,16,18,20],"name":"geometry_edges0_0_nonC3triprism.off"},{"children":[5],"matrix":[0.0047205712159942214,0.003622221793780176,-0.004565710695698955,0,0.003622221793780176,0.0027794286163677164,0.005950149857659825,0,1.499999935636171,-1.9548379208352287,5.471221916749573e-16,0,0.75,0.9774190187454224,2,1],"name":"Object_4"},{"mesh":0,"name":"im_edge_cylinder"},{"children":[7],"matrix":[0.0047205712159942214,-0.003622221793780176,0.004565710695698955,0,-0.003622221793780176,0.0027794286163677164,0.005950149857659825,0,-1.499999935636171,-1.9548379208352287,5.471221916749573e-16,0,-0.75,0.9774190187454224,2,1],"name":"Object_6"},{"mesh":1,"name":"im_edge_cylinder"},{"children":[9],"matrix":[-0.007499999832361937,-9.184850788307732e-19,0,0,9.184850788307732e-19,-0.007499999832361937,0,0,0,0,4,0,0,1.9548381567001343,0,1],"name":"Object_8"},{"mesh":2,"name":"im_edge_cylinder"},{"children":[11],"matrix":[1.6653344997146072e-18,0,0.007499999832361937,0,0,0.007499999832361937,0,0,-3,0,6.661338147750939e-16,0,0,0,2,1],"name":"Object_10"},{"mesh":3,"name":"im_edge_cylinder"},{"children":[13],"matrix":[-0.007499999832361937,-9.184850788307732e-19,0,0,9.184850788307732e-19,-0.007499999832361937,0,0,0,0,4,0,1.5,0,0,1],"name":"Object_12"},{"mesh":4,"name":"im_edge_cylinder"},{"children":[15],"matrix":[-0.007499999832361937,-9.184850788307732e-19,0,0,9.184850788307732e-19,-0.007499999832361937,0,0,0,0,4,0,-1.5,0,0,1],"name":"Object_14"},{"mesh":5,"name":"im_edge_cylinder"},{"children":[17],"matrix":[0.0047205712159942214,0.003622221793780176,-0.004565710695698955,0,0.003622221793780176,0.0027794286163677164,0.005950149857659825,0,1.499999935636171,-1.9548379208352287,5.471221916749573e-16,0,0.75,0.9774190187454224,-2,1],"name":"Object_16"},{"mesh":6,"name":"im_edge_cylinder"},{"children":[19],"matrix":[0.0047205712159942214,-0.003622221793780176,0.004565710695698955,0,-0.003622221793780176,0.0027794286163677164,0.005950149857659825,0,-1.499999935636171,-1.9548379208352287,5.471221916749573e-16,0,-0.75,0.9774190187454224,-2,1],"name":"Object_18"},{"mesh":7,"name":"im_edge_cylinder"},{"children":[21],"matrix":[1.6653344997146072e-18,0,0.007499999832361937,0,0,0.007499999832361937,0,0,-3,0,6.661338147750939e-16,0,0,0,-2,1],"name":"Object_20"},{"mesh":8,"name":"im_edge_cylinder"},{"mesh":9,"name":"im_cce6e6ff"}],"scene":0,"scenes":[{"name":"Sketchfab_Scene","nodes":[0]}]}